<svg width="48" height="48" viewBox="0 0 48 48" fill="none" xmlns="http://www.w3.org/2000/svg">
<g filter="url(#filter0_i_2287_1642)">
<g clip-path="url(#clip0_2287_1642)">
<rect width="48" height="48" rx="16" fill="url(#paint0_linear_2287_1642)"/>
<path d="M21.5285 23.9696C18.1912 25.1624 15.4404 26.9781 13.0943 29.1948C11.479 30.721 7.40504 35.1214 9.32487 37.7159C9.64687 38.151 11.7057 40.2332 12.693 41.0695C13.4198 41.6853 13.5559 41.8542 14.2845 41.6967C17.9018 40.9149 23.9574 23.1016 21.5285 23.9696Z" fill="url(#paint1_linear_2287_1642)"/>
<path d="M21.7333 24.1811C21.7651 24.2113 21.8129 24.2959 21.8405 24.4832C21.8945 24.85 21.8493 25.4467 21.7086 26.2232C21.4293 27.7652 20.7916 29.9209 19.963 32.1353C19.1346 34.349 18.1192 36.6092 17.0894 38.3608C16.5743 39.237 16.0597 39.9795 15.5669 40.524C15.0681 41.0751 14.6177 41.3944 14.2367 41.4767C13.8915 41.5513 13.7332 41.538 13.5826 41.4686C13.4988 41.43 13.4069 41.3693 13.2857 41.2734C13.1633 41.1766 13.0241 41.0549 12.8388 40.898C12.3527 40.4862 11.5959 39.7619 10.9183 39.0832C10.2355 38.3993 9.65466 37.7828 9.50583 37.5817C9.07164 36.9948 8.96897 36.3005 9.09856 35.5431C9.22909 34.7808 9.59369 33.967 10.0765 33.1717C11.0417 31.5816 12.4469 30.1156 13.2486 29.3582C15.5746 27.1603 18.2998 25.3626 21.6044 24.1815C21.7003 24.1473 21.7232 24.1716 21.7333 24.1811Z" stroke="url(#paint2_linear_2287_1642)" stroke-opacity="0.8" stroke-width="0.45"/>
<g clip-path="url(#clip1_2287_1642)">
<g filter="url(#filter1_i_2287_1642)">
<path d="M0.871057 12.6345C0.872291 11.9886 1.39697 11.4659 2.04296 11.4671L46.8802 11.5527C47.5261 11.554 48.0488 12.0786 48.0476 12.7246L48.0007 37.2876L0.824153 37.1975L0.871057 12.6345Z" fill="#FBF2ED"/>
</g>
<g filter="url(#filter2_f_2287_1642)">
<path d="M42.8758 15.6382C42.8707 18.276 34.6132 23.274 24.4389 23.2546C14.2646 23.2351 6.02625 18.2056 6.03128 15.5678C6.03632 12.93 14.2883 10.8074 24.4626 10.8269C34.637 10.8463 42.8808 13.0004 42.8758 15.6382Z" fill="url(#paint3_radial_2287_1642)" fill-opacity="0.06"/>
</g>
<g filter="url(#filter3_di_2287_1642)">
<path d="M24.4613 20.4805L44.1959 36.3924L4.66598 36.317L24.4613 20.4805Z" fill="#FEF9F6"/>
</g>
<rect opacity="0.2" x="8.3186" y="17.0287" width="0.971131" height="1.69948" transform="rotate(75.1094 8.3186 17.0287)" fill="#E9AC88"/>
<rect opacity="0.15" x="9.20605" y="35.5508" width="0.971131" height="1.69948" transform="rotate(-14.8906 9.20605 35.5508)" fill="#E9AC88"/>
<rect opacity="0.15" x="25.3369" y="35.5834" width="0.971131" height="1.69948" transform="rotate(-14.8906 25.3369 35.5834)" fill="#E9AC88"/>
<rect opacity="0.2" width="0.971131" height="1.69948" transform="matrix(-0.260663 0.96543 0.96543 0.260663 40.6758 17.0912)" fill="#E9AC88"/>
<rect opacity="0.2" x="8.31384" y="19.6992" width="0.971131" height="1.69948" transform="rotate(75.1094 8.31384 19.6992)" fill="#E9AC88"/>
<rect opacity="0.15" x="11.8776" y="35.5573" width="0.971131" height="1.69948" transform="rotate(-14.8906 11.8776 35.5573)" fill="#E9AC88"/>
<rect opacity="0.15" x="28.0078" y="35.5886" width="0.971131" height="1.69948" transform="rotate(-14.8906 28.0078 35.5886)" fill="#E9AC88"/>
<rect opacity="0.2" width="0.971131" height="1.69948" transform="matrix(-0.260663 0.96543 0.96543 0.260663 40.6705 19.7617)" fill="#E9AC88"/>
<rect opacity="0.2" x="8.30859" y="22.3711" width="0.971131" height="1.69948" transform="rotate(75.1094 8.30859 22.3711)" fill="#E9AC88"/>
<rect opacity="0.15" x="14.5482" y="35.5638" width="0.971131" height="1.69948" transform="rotate(-14.8906 14.5482 35.5638)" fill="#E9AC88"/>
<rect opacity="0.15" x="30.6783" y="35.5938" width="0.971131" height="1.69948" transform="rotate(-14.8906 30.6783 35.5938)" fill="#E9AC88"/>
<rect opacity="0.2" width="0.971131" height="1.69948" transform="matrix(-0.260663 0.96543 0.96543 0.260663 40.6654 22.4336)" fill="#E9AC88"/>
<rect opacity="0.2" x="8.30334" y="25.0417" width="0.971131" height="1.69948" transform="rotate(75.1094 8.30334 25.0417)" fill="#E9AC88"/>
<rect opacity="0.15" x="17.2184" y="35.5664" width="0.971131" height="1.69948" transform="rotate(-14.8906 17.2184 35.5664)" fill="#E9AC88"/>
<rect opacity="0.15" x="33.349" y="35.599" width="0.971131" height="1.69948" transform="rotate(-14.8906 33.349 35.599)" fill="#E9AC88"/>
<rect opacity="0.2" width="0.971131" height="1.69948" transform="matrix(-0.260663 0.96543 0.96543 0.260663 40.6611 25.1042)" fill="#E9AC88"/>
<rect opacity="0.2" x="8.29822" y="27.7123" width="0.971131" height="1.69948" transform="rotate(75.1094 8.29822 27.7123)" fill="#E9AC88"/>
<rect opacity="0.15" x="19.8893" y="35.5729" width="0.971131" height="1.69948" transform="rotate(-14.8906 19.8893 35.5729)" fill="#E9AC88"/>
<rect opacity="0.15" x="36.0205" y="35.6029" width="0.971131" height="1.69948" transform="rotate(-14.8906 36.0205 35.6029)" fill="#E9AC88"/>
<rect opacity="0.2" width="0.971131" height="1.69948" transform="matrix(-0.260663 0.96543 0.96543 0.260663 40.6549 27.7735)" fill="#E9AC88"/>
<rect opacity="0.2" x="8.29395" y="30.3828" width="0.971131" height="1.69948" transform="rotate(75.1094 8.29395 30.3828)" fill="#E9AC88"/>
<rect opacity="0.15" x="22.5599" y="35.5782" width="0.971131" height="1.69948" transform="rotate(-14.8906 22.5599 35.5782)" fill="#E9AC88"/>
<rect opacity="0.15" x="38.6901" y="35.6081" width="0.971131" height="1.69948" transform="rotate(-14.8906 38.6901 35.6081)" fill="#E9AC88"/>
<rect opacity="0.2" width="0.971131" height="1.69948" transform="matrix(-0.260663 0.96543 0.96543 0.260663 40.6498 30.444)" fill="#E9AC88"/>
<g filter="url(#filter4_d_2287_1642)">
<path d="M4.5675 12.565L-2.61365 -9.60414L48.6289 -3.46833L43.8501 12.64L26.0422 25.8003C24.9369 26.6171 23.4272 26.6143 22.325 25.7932L4.5675 12.565Z" fill="#FFFDFC"/>
</g>
<g filter="url(#filter5_f_2287_1642)">
<path d="M42.8861 10.0822C42.8811 12.72 34.6236 17.718 24.4493 17.6986C14.275 17.6792 6.03662 12.6496 6.04166 10.0118C6.0467 7.37405 14.2987 5.25145 24.473 5.27088C34.6473 5.29031 42.8912 7.44441 42.8861 10.0822Z" fill="#CC4B00" fill-opacity="0.07"/>
</g>
<g filter="url(#filter6_f_2287_1642)">
<rect x="48.6393" y="9.11852" width="3.02165" height="50.3932" transform="rotate(90.1094 48.6393 9.11852)" fill="white"/>
</g>
<g filter="url(#filter7_f_2287_1642)">
<path d="M40.7926 34.6895C40.7876 37.3273 34.5728 44.5711 24.3984 44.5517C14.2241 44.5322 7.50086 37.2637 7.5059 34.6259C7.51094 31.9882 14.2592 26.1587 24.4335 26.1782C34.6078 26.1976 40.7977 32.0517 40.7926 34.6895Z" fill="#F87428" fill-opacity="0.04"/>
</g>
</g>
<rect x="7.54681" y="11.0387" width="33.9715" height="25.1556" rx="4.04404" transform="rotate(0.109409 7.54681 11.0387)" stroke="url(#paint4_linear_2287_1642)" stroke-width="0.26087"/>
<g filter="url(#filter8_di_2287_1642)">
<path d="M17.4978 20.9859C19.0218 21.258 18.9223 22.3543 18.0957 23.0341C15.6648 25.0331 13.4805 26.9834 11.3963 29.3679C10.3522 30.5623 6.63044 34.8652 8.07633 37.6328C8.81437 39.0455 9.91464 40.0714 11.4063 41.3561C12.3411 42.1612 12.6186 43.5114 11.9701 44.5608C10.2252 47.3842 8.39117 48.8108 4.58734 49.9506C1.40186 50.8411 -3.53944 49.5173 -5.75825 46.8867C-7.08623 45.3122 -7.6446 40.9059 -7.28983 38.8532C-6.41082 33.7662 -2.77672 28.8385 1.5317 25.9045C5.81418 23.0071 12.304 20.0376 17.4978 20.9859Z" fill="url(#paint5_linear_2287_1642)"/>
<path d="M17.4624 21.1823C18.185 21.3113 18.4379 21.617 18.481 21.8887C18.5275 22.1834 18.3536 22.5631 17.9687 22.8796C15.5341 24.8817 13.3406 26.8401 11.2462 29.2362C10.7238 29.8338 9.51916 31.2216 8.62782 32.8124C8.18212 33.6078 7.80978 34.4632 7.64225 35.3026C7.47456 36.1429 7.51001 36.9807 7.89892 37.7253C8.65659 39.1755 9.78489 40.2233 11.2757 41.5073C12.1439 42.255 12.391 43.4982 11.7997 44.4552C10.9363 45.8522 10.0581 46.8937 8.93231 47.7264C7.94615 48.4557 6.76142 49.0313 5.2155 49.543L4.53319 49.758C2.98581 50.1905 0.993254 50.0883 -0.892927 49.5469C-2.77943 49.0054 -4.52924 48.0331 -5.60514 46.7575C-5.91475 46.3904 -6.18859 45.8457 -6.41844 45.1897C-6.64733 44.5364 -6.82862 43.7856 -6.95784 43.0165C-7.21704 41.4737 -7.26493 39.8829 -7.0928 38.887C-6.22468 33.8634 -2.62808 28.9794 1.64461 26.0698L1.64425 26.0684C3.77408 24.6276 6.45188 23.1702 9.23909 22.1911C12.0294 21.211 14.9128 20.7177 17.4619 21.1831L17.4624 21.1823Z" stroke="url(#paint6_linear_2287_1642)" stroke-width="0.4"/>
</g>
<mask id="mask0_2287_1642" style="mask-type:alpha" maskUnits="userSpaceOnUse" x="-8" y="20" width="27" height="31">
<path d="M17.4621 21.1827C18.1846 21.3118 18.4376 21.6175 18.4806 21.8892C18.5271 22.1838 18.3532 22.5636 17.9683 22.8801C15.5337 24.8822 13.3402 26.8405 11.2458 29.2367C10.7235 29.8342 9.5188 31.222 8.62746 32.8128C8.18176 33.6083 7.80941 34.4637 7.64189 35.3031C7.47419 36.1434 7.50964 36.9812 7.89855 37.7257C8.88372 39.6114 10.5054 40.8283 12.7499 42.7741C11.7166 44.7362 10.7808 46.1352 9.56848 47.2103C8.48436 48.1717 7.16914 48.8839 5.34372 49.5004L4.53282 49.7585C2.98544 50.191 0.992888 50.0888 -0.893294 49.5474C-2.77979 49.0059 -4.5296 48.0336 -5.6055 46.758C-5.91512 46.3909 -6.18896 45.8461 -6.41881 45.1901C-6.64769 44.5369 -6.82898 43.7861 -6.95821 43.017C-7.21741 41.4742 -7.2653 39.8834 -7.09317 38.8875C-6.22504 33.8639 -2.62844 28.9799 1.64424 26.0702L1.64388 26.0689C3.77371 24.628 6.45151 23.1707 9.23873 22.1916C12.029 21.2114 14.9125 20.7182 17.4616 21.1836L17.4621 21.1827Z" fill="url(#paint7_linear_2287_1642)" stroke="url(#paint8_linear_2287_1642)" stroke-width="0.4"/>
</mask>
<g mask="url(#mask0_2287_1642)">
<g filter="url(#filter9_f_2287_1642)">
<path d="M17.1442 18.2727C10.7056 19.7954 2.81794 23.0544 -1.33347 31.4685C5.15965 25.7521 11.4027 21.0241 17.1442 18.2727Z" fill="white"/>
</g>
</g>
</g>
<rect x="0.166667" y="0.166667" width="47.6667" height="47.6667" rx="15.8333" stroke="url(#paint9_linear_2287_1642)" stroke-width="0.333333"/>
</g>
<defs>
<filter id="filter0_i_2287_1642" x="0" y="0" width="48" height="49.3333" filterUnits="userSpaceOnUse" color-interpolation-filters="sRGB">
<feFlood flood-opacity="0" result="BackgroundImageFix"/>
<feBlend mode="normal" in="SourceGraphic" in2="BackgroundImageFix" result="shape"/>
<feColorMatrix in="SourceAlpha" type="matrix" values="0 0 0 0 0 0 0 0 0 0 0 0 0 0 0 0 0 0 127 0" result="hardAlpha"/>
<feOffset dy="1.33333"/>
<feGaussianBlur stdDeviation="1.33333"/>
<feComposite in2="hardAlpha" operator="arithmetic" k2="-1" k3="1"/>
<feColorMatrix type="matrix" values="0 0 0 0 1 0 0 0 0 1 0 0 0 0 1 0 0 0 0.4 0"/>
<feBlend mode="normal" in2="shape" result="effect1_innerShadow_2287_1642"/>
</filter>
<filter id="filter1_i_2287_1642" x="0.824097" y="11.4671" width="47.2235" height="26.2104" filterUnits="userSpaceOnUse" color-interpolation-filters="sRGB">
<feFlood flood-opacity="0" result="BackgroundImageFix"/>
<feBlend mode="normal" in="SourceGraphic" in2="BackgroundImageFix" result="shape"/>
<feColorMatrix in="SourceAlpha" type="matrix" values="0 0 0 0 0 0 0 0 0 0 0 0 0 0 0 0 0 0 127 0" result="hardAlpha"/>
<feOffset dy="0.38989"/>
<feGaussianBlur stdDeviation="7.28348"/>
<feComposite in2="hardAlpha" operator="arithmetic" k2="-1" k3="1"/>
<feColorMatrix type="matrix" values="0 0 0 0 0.5625 0 0 0 0 0.73738 0 0 0 0 0.9375 0 0 0 0.2 0"/>
<feBlend mode="normal" in2="shape" result="effect1_innerShadow_2287_1642"/>
</filter>
<filter id="filter2_f_2287_1642" x="1.74247" y="6.53795" width="45.4221" height="21.0055" filterUnits="userSpaceOnUse" color-interpolation-filters="sRGB">
<feFlood flood-opacity="0" result="BackgroundImageFix"/>
<feBlend mode="normal" in="SourceGraphic" in2="BackgroundImageFix" result="shape"/>
<feGaussianBlur stdDeviation="2.14439" result="effect1_foregroundBlur_2287_1642"/>
</filter>
<filter id="filter3_di_2287_1642" x="2.71657" y="18.9209" width="43.4288" height="19.8109" filterUnits="userSpaceOnUse" color-interpolation-filters="sRGB">
<feFlood flood-opacity="0" result="BackgroundImageFix"/>
<feColorMatrix in="SourceAlpha" type="matrix" values="0 0 0 0 0 0 0 0 0 0 0 0 0 0 0 0 0 0 127 0" result="hardAlpha"/>
<feOffset dy="0.38989"/>
<feGaussianBlur stdDeviation="0.974724"/>
<feComposite in2="hardAlpha" operator="out"/>
<feColorMatrix type="matrix" values="0 0 0 0 0.954774 0 0 0 0 0.924678 0 0 0 0 0.907254 0 0 0 1 0"/>
<feBlend mode="normal" in2="BackgroundImageFix" result="effect1_dropShadow_2287_1642"/>
<feBlend mode="normal" in="SourceGraphic" in2="effect1_dropShadow_2287_1642" result="shape"/>
<feColorMatrix in="SourceAlpha" type="matrix" values="0 0 0 0 0 0 0 0 0 0 0 0 0 0 0 0 0 0 127 0" result="hardAlpha"/>
<feOffset/>
<feGaussianBlur stdDeviation="0.38989"/>
<feComposite in2="hardAlpha" operator="arithmetic" k2="-1" k3="1"/>
<feColorMatrix type="matrix" values="0 0 0 0 1 0 0 0 0 1 0 0 0 0 1 0 0 0 1 0"/>
<feBlend mode="normal" in2="shape" result="effect2_innerShadow_2287_1642"/>
</filter>
<filter id="filter4_d_2287_1642" x="-7.87715" y="-14.4778" width="61.7696" height="46.5421" filterUnits="userSpaceOnUse" color-interpolation-filters="sRGB">
<feFlood flood-opacity="0" result="BackgroundImageFix"/>
<feColorMatrix in="SourceAlpha" type="matrix" values="0 0 0 0 0 0 0 0 0 0 0 0 0 0 0 0 0 0 127 0" result="hardAlpha"/>
<feOffset dy="0.38989"/>
<feGaussianBlur stdDeviation="2.63175"/>
<feComposite in2="hardAlpha" operator="out"/>
<feColorMatrix type="matrix" values="0 0 0 0 0.970477 0 0 0 0 0.878139 0 0 0 0 0.82468 0 0 0 0.8 0"/>
<feBlend mode="normal" in2="BackgroundImageFix" result="effect1_dropShadow_2287_1642"/>
<feBlend mode="normal" in="SourceGraphic" in2="effect1_dropShadow_2287_1642" result="shape"/>
</filter>
<filter id="filter5_f_2287_1642" x="0.714931" y="-0.055943" width="47.4979" height="23.0813" filterUnits="userSpaceOnUse" color-interpolation-filters="sRGB">
<feFlood flood-opacity="0" result="BackgroundImageFix"/>
<feBlend mode="normal" in="SourceGraphic" in2="BackgroundImageFix" result="shape"/>
<feGaussianBlur stdDeviation="2.66335" result="effect1_foregroundBlur_2287_1642"/>
</filter>
<filter id="filter6_f_2287_1642" x="-2.34448" y="8.43744" width="51.5686" height="4.28754" filterUnits="userSpaceOnUse" color-interpolation-filters="sRGB">
<feFlood flood-opacity="0" result="BackgroundImageFix"/>
<feBlend mode="normal" in="SourceGraphic" in2="BackgroundImageFix" result="shape"/>
<feGaussianBlur stdDeviation="0.292417" result="effect1_foregroundBlur_2287_1642"/>
</filter>
<filter id="filter7_f_2287_1642" x="3.21708" y="21.8893" width="41.8643" height="26.9512" filterUnits="userSpaceOnUse" color-interpolation-filters="sRGB">
<feFlood flood-opacity="0" result="BackgroundImageFix"/>
<feBlend mode="normal" in="SourceGraphic" in2="BackgroundImageFix" result="shape"/>
<feGaussianBlur stdDeviation="2.14439" result="effect1_foregroundBlur_2287_1642"/>
</filter>
<filter id="filter8_di_2287_1642" x="-12.7276" y="18.1392" width="36.7492" height="40.0878" filterUnits="userSpaceOnUse" color-interpolation-filters="sRGB">
<feFlood flood-opacity="0" result="BackgroundImageFix"/>
<feColorMatrix in="SourceAlpha" type="matrix" values="0 0 0 0 0 0 0 0 0 0 0 0 0 0 0 0 0 0 127 0" result="hardAlpha"/>
<feOffset dy="2.66667"/>
<feGaussianBlur stdDeviation="2.66667"/>
<feComposite in2="hardAlpha" operator="out"/>
<feColorMatrix type="matrix" values="0 0 0 0 0.951623 0 0 0 0 0.464702 0 0 0 0 0.180369 0 0 0 0.6 0"/>
<feBlend mode="normal" in2="BackgroundImageFix" result="effect1_dropShadow_2287_1642"/>
<feBlend mode="normal" in="SourceGraphic" in2="effect1_dropShadow_2287_1642" result="shape"/>
<feColorMatrix in="SourceAlpha" type="matrix" values="0 0 0 0 0 0 0 0 0 0 0 0 0 0 0 0 0 0 127 0" result="hardAlpha"/>
<feOffset dx="2.27197" dy="0.567993"/>
<feGaussianBlur stdDeviation="1.13599"/>
<feComposite in2="hardAlpha" operator="arithmetic" k2="-1" k3="1"/>
<feColorMatrix type="matrix" values="0 0 0 0 1 0 0 0 0 0.810713 0 0 0 0 0.701831 0 0 0 1 0"/>
<feBlend mode="normal" in2="shape" result="effect2_innerShadow_2287_1642"/>
</filter>
<filter id="filter9_f_2287_1642" x="-5.3335" y="14.2727" width="26.4777" height="21.1959" filterUnits="userSpaceOnUse" color-interpolation-filters="sRGB">
<feFlood flood-opacity="0" result="BackgroundImageFix"/>
<feBlend mode="normal" in="SourceGraphic" in2="BackgroundImageFix" result="shape"/>
<feGaussianBlur stdDeviation="2" result="effect1_foregroundBlur_2287_1642"/>
</filter>
<linearGradient id="paint0_linear_2287_1642" x1="24" y1="0" x2="24" y2="48" gradientUnits="userSpaceOnUse">
<stop stop-color="#FF8944"/>
<stop offset="1" stop-color="#FF5E00"/>
</linearGradient>
<linearGradient id="paint1_linear_2287_1642" x1="13.3282" y1="34.1901" x2="10.8191" y2="41.3005" gradientUnits="userSpaceOnUse">
<stop stop-color="#FF7829"/>
<stop offset="1" stop-color="#FFB78D"/>
</linearGradient>
<linearGradient id="paint2_linear_2287_1642" x1="15.3021" y1="35.7393" x2="11.5282" y2="40.1723" gradientUnits="userSpaceOnUse">
<stop stop-color="white" stop-opacity="0"/>
<stop offset="1" stop-color="white" stop-opacity="0.2"/>
</linearGradient>
<radialGradient id="paint3_radial_2287_1642" cx="0" cy="0" r="1" gradientUnits="userSpaceOnUse" gradientTransform="translate(24.4508 17.0407) rotate(90.1094) scale(6.21386 18.4223)">
<stop stop-color="#E36A24"/>
<stop offset="1" stop-color="#D77136" stop-opacity="0.62"/>
</radialGradient>
<linearGradient id="paint4_linear_2287_1642" x1="24.5328" y1="10.908" x2="24.5328" y2="36.3245" gradientUnits="userSpaceOnUse">
<stop stop-color="white"/>
<stop offset="1" stop-color="white" stop-opacity="0.1"/>
</linearGradient>
<linearGradient id="paint5_linear_2287_1642" x1="-0.666381" y1="24.6667" x2="5.59866" y2="42.998" gradientUnits="userSpaceOnUse">
<stop stop-color="#FF833C"/>
<stop offset="1" stop-color="#FFB78E"/>
</linearGradient>
<linearGradient id="paint6_linear_2287_1642" x1="11.3336" y1="20" x2="0.551108" y2="43.1654" gradientUnits="userSpaceOnUse">
<stop stop-color="white" stop-opacity="0.7"/>
<stop offset="1" stop-color="white" stop-opacity="0"/>
</linearGradient>
<linearGradient id="paint7_linear_2287_1642" x1="13.9999" y1="26.0005" x2="5.41799" y2="47.373" gradientUnits="userSpaceOnUse">
<stop stop-color="#FF833C"/>
<stop offset="1" stop-color="#FFA26B"/>
</linearGradient>
<linearGradient id="paint8_linear_2287_1642" x1="11.3333" y1="25.3338" x2="-0.328021" y2="39.2212" gradientUnits="userSpaceOnUse">
<stop stop-color="white" stop-opacity="0.5"/>
<stop offset="1" stop-color="white" stop-opacity="0"/>
</linearGradient>
<linearGradient id="paint9_linear_2287_1642" x1="24" y1="0" x2="24" y2="48" gradientUnits="userSpaceOnUse">
<stop stop-color="white"/>
<stop offset="1" stop-color="white" stop-opacity="0"/>
</linearGradient>
<clipPath id="clip0_2287_1642">
<rect width="48" height="48" rx="16" fill="white"/>
</clipPath>
<clipPath id="clip1_2287_1642">
<rect x="7.41663" y="10.908" width="34.2324" height="25.4165" rx="4.17448" transform="rotate(0.109409 7.41663 10.908)" fill="white"/>
</clipPath>
</defs>
</svg>
